<?xml version="1.0" encoding="UTF-8"?>
<svg width="1280" height="720" xmlns="http://www.w3.org/2000/svg">
  <!-- Browser Window Background -->
  <rect width="1280" height="720" fill="#f3f4f6"/>

  <!-- Browser Chrome -->
  <rect x="20" y="20" width="1240" height="40" fill="#e5e7eb" rx="8" ry="8"/>
  <circle cx="40" cy="40" r="6" fill="#ef4444"/>
  <circle cx="60" cy="40" r="6" fill="#f59e0b"/>
  <circle cx="80" cy="40" r="6" fill="#10b981"/>
  <rect x="120" y="30" width="600" height="20" fill="white" rx="10"/>
  <text x="130" y="45" font-family="monospace" font-size="12" fill="#6b7280">https://example.com/login</text>

  <!-- Page Content Area -->
  <rect x="20" y="65" width="1240" height="635" fill="white"/>

  <!-- Header -->
  <rect x="20" y="65" width="1240" height="60" fill="#1f2937"/>
  <text x="640" y="100" font-family="Arial, sans-serif" font-size="20" fill="white" text-anchor="middle" font-weight="bold">MyApp</text>

  <!-- Login Form Container -->
  <rect x="440" y="200" width="400" height="320" fill="#ffffff" stroke="#e5e7eb" stroke-width="2" rx="8"/>
  <text x="640" y="240" font-family="Arial, sans-serif" font-size="24" fill="#1f2937" text-anchor="middle" font-weight="bold">Sign In</text>

  <!-- Email Input -->
  <rect x="480" y="270" width="320" height="40" fill="#f9fafb" stroke="#d1d5db" stroke-width="1" rx="4"/>
  <text x="490" y="295" font-family="Arial, sans-serif" font-size="14" fill="#6b7280">user@example.com</text>

  <!-- Password Input -->
  <rect x="480" y="330" width="320" height="40" fill="#f9fafb" stroke="#d1d5db" stroke-width="1" rx="4"/>
  <text x="490" y="355" font-family="Arial, sans-serif" font-size="14" fill="#6b7280">••••••••</text>

  <!-- Login Button - Highlighted based on status -->
  <rect x="480" y="390" width="320" height="45" fill="#3b82f6" stroke="#10b981" stroke-width="1" rx="6"/>
  <text x="640" y="418" font-family="Arial, sans-serif" font-size="16" fill="white" text-anchor="middle" font-weight="bold">Login</text>

  
  <!-- Success Annotation -->
  <rect x="880" y="380" width="340" height="70" fill="#d1fae5" stroke="#10b981" stroke-width="2" rx="6"/>
  <text x="900" y="405" font-family="Arial, sans-serif" font-size="14" fill="#065f46" font-weight="bold">✓ Test Passed</text>
  <text x="900" y="428" font-family="Arial, sans-serif" font-size="12" fill="#047857">Login button clicked successfully</text>
  <text x="900" y="445" font-family="Arial, sans-serif" font-size="12" fill="#047857">Redirected to dashboard</text>
  

  <!-- Footer Info -->
  <rect x="20" y="680" width="1240" height="20" fill="#f3f4f6"/>
  <text x="30" y="695" font-family="monospace" font-size="10" fill="#6b7280">Verify login button text changes to &apos;Sign In&apos;</text>
  <text x="1250" y="695" font-family="monospace" font-size="10" fill="#6b7280" text-anchor="end">10/26/2025, 6:21:36 PM</text>
</svg>